<svg data-v-423bf9ae="" xmlns="http://www.w3.org/2000/svg" viewBox="0 0 226.68257388263254 60" class="font"><!----><!----><!----><g data-v-423bf9ae="" id="a3548ebd-9755-4ea8-bd78-ae04e6514f44" fill="black" transform="matrix(4.773269443479854,0,0,4.773269443479854,1.6229124484640778,-43.86634465947344)"><path d="M3.91 19.32L3.91 19.32Q2.26 19.32 2.26 18.70L2.26 18.70Q2.26 18.53 2.54 18.48Q2.83 18.43 3.12 18.38Q3.40 18.32 3.40 18.14L3.40 18.14L3.40 10.58L1.40 10.58Q1.07 10.58 0.79 11.34Q0.51 12.10 0.19 12.10L0.19 12.10Q-0.34 12.10-0.34 11.47L-0.34 11.47Q-0.34 10.60-0.04 10.15Q0.25 9.71 1.03 9.71L1.03 9.71L5.01 9.71Q7.18 9.71 7.70 9.73L7.70 9.73Q8.41 9.76 8.59 10.92L8.59 10.92Q8.63 11.20 8.63 11.51L8.63 11.51Q8.63 12.10 8.10 12.10L8.10 12.10Q7.75 12.10 7.52 11.34L7.52 11.34Q7.43 11.05 7.27 10.82Q7.10 10.58 6.89 10.58L6.89 10.58L4.89 10.58L4.89 18.14Q4.89 18.34 5.47 18.44Q6.06 18.54 6.06 18.70L6.06 18.70Q6.06 18.94 5.94 19.03Q5.82 19.12 5.74 19.17Q5.65 19.22 5.50 19.24Q5.35 19.27 5.24 19.29Q5.13 19.30 4.93 19.31Q4.73 19.32 4.62 19.32L4.62 19.32Q4.27 19.32 3.91 19.32ZM11.05 19.49L11.05 19.49Q9.51 19.49 8.57 18.52Q7.62 17.54 7.62 16.04L7.62 16.04Q7.62 15.05 8.12 14.27Q8.62 13.49 9.47 13.07Q10.32 12.66 11.37 12.66L11.37 12.66Q12.87 12.66 13.85 13.60Q14.83 14.53 14.83 16.02L14.83 16.02Q14.83 17.04 14.32 17.84Q13.82 18.63 12.97 19.06Q12.11 19.49 11.05 19.49ZM11.33 18.73Q12.35 18.73 12.92 18.04Q13.49 17.35 13.49 16.20Q13.49 15.05 12.84 14.22Q12.18 13.38 11.15 13.38Q10.12 13.38 9.57 14.09Q9.02 14.79 9.02 15.93Q9.02 17.08 9.67 17.90Q10.32 18.73 11.33 18.73ZM17.43 19.32L17.43 19.32L16.84 19.33Q15.95 19.33 15.74 19.05L15.74 19.05Q15.64 18.93 15.64 18.75Q15.64 18.58 15.78 18.51Q15.91 18.44 16.08 18.44Q16.24 18.43 16.38 18.33Q16.52 18.23 16.52 18.01L16.52 18.01L16.52 10.79Q16.52 10.17 16.02 10.12L16.02 10.12Q15.98 10.12 15.90 10.11Q15.83 10.10 15.79 10.10Q15.76 10.10 15.71 10.09Q15.65 10.08 15.63 10.06Q15.61 10.05 15.59 10.03L15.59 10.03Q15.54 9.99 15.54 9.83Q15.54 9.67 15.75 9.50L15.75 9.50Q16.13 9.19 16.78 9.19L16.78 9.19Q17.47 9.19 17.59 9.27L17.59 9.27Q17.82 9.43 17.82 9.70L17.82 9.70L17.82 18.01Q17.82 18.41 18.26 18.43Q18.70 18.46 18.70 18.79L18.70 18.79Q18.70 19.16 18.29 19.25L18.29 19.25Q17.98 19.32 17.43 19.32ZM20.36 18.57Q19.41 17.64 19.41 16.11Q19.41 14.57 20.37 13.61Q21.32 12.65 22.80 12.65L22.80 12.65Q23.97 12.65 24.77 13.40Q25.57 14.16 25.57 15.30L25.57 15.30Q25.57 15.85 24.70 15.85L24.70 15.85L20.74 15.85Q20.75 16.96 21.46 17.72Q22.16 18.48 23.24 18.48L23.24 18.48Q23.95 18.48 24.62 18.06L24.62 18.06Q24.97 17.84 25.07 17.84Q25.17 17.84 25.30 17.94Q25.42 18.04 25.42 18.18L25.42 18.18Q25.42 18.56 24.94 18.88Q24.46 19.20 23.88 19.35Q23.30 19.50 22.86 19.50L22.86 19.50Q21.31 19.50 20.36 18.57ZM24.32 15.13L24.32 15.13Q24.30 14.35 23.91 13.86Q23.51 13.36 22.75 13.36Q21.98 13.36 21.41 13.91Q20.84 14.46 20.81 15.16L20.81 15.16L22.41 15.16Q23.47 15.16 24.32 15.13ZM28.36 19.32L28.36 19.32L27.77 19.33Q26.88 19.33 26.67 19.05L26.67 19.05Q26.57 18.93 26.57 18.75Q26.57 18.58 26.71 18.51Q26.84 18.44 27.01 18.44Q27.18 18.43 27.32 18.33Q27.45 18.23 27.45 18.01L27.45 18.01L27.45 14.11Q27.45 13.90 27.30 13.80Q27.15 13.70 26.97 13.69L26.97 13.69Q26.48 13.66 26.48 13.38L26.48 13.38Q26.48 12.93 27.38 12.77L27.38 12.77Q27.58 12.73 27.76 12.73L27.76 12.73Q28.35 12.73 28.52 12.90Q28.69 13.08 28.69 13.68L28.69 13.68Q29.63 12.63 31.25 12.63L31.25 12.63Q31.81 12.63 32.34 12.96Q32.87 13.30 33.16 13.75L33.16 13.75Q34.32 12.62 35.75 12.62L35.75 12.62Q37.39 12.62 37.84 14.03L37.84 14.03Q38.09 14.79 38.09 16.10L38.09 16.10L38.09 18.01Q38.09 18.41 38.53 18.43Q38.97 18.46 38.97 18.79L38.97 18.79Q38.97 19.16 38.56 19.25L38.56 19.25Q38.25 19.32 37.70 19.32L37.70 19.32L37.11 19.33Q36.22 19.33 36.00 19.05L36.00 19.05Q35.91 18.93 35.91 18.75Q35.91 18.58 36.05 18.51Q36.18 18.44 36.35 18.44Q36.52 18.43 36.65 18.33Q36.79 18.23 36.79 18.01L36.79 18.01L36.79 15.91Q36.79 14.35 36.44 13.92L36.44 13.92Q36.11 13.50 35.51 13.50Q34.90 13.50 34.45 13.66Q34.00 13.82 33.71 14.16Q33.43 14.50 33.43 14.96L33.43 14.96L33.43 18.01Q33.43 18.41 33.87 18.43Q34.31 18.46 34.31 18.79L34.31 18.79Q34.31 19.16 33.90 19.25L33.90 19.25Q33.58 19.32 33.04 19.32L33.04 19.32L32.45 19.33Q31.55 19.33 31.34 19.05L31.34 19.05Q31.25 18.93 31.25 18.75Q31.25 18.58 31.38 18.51Q31.52 18.44 31.69 18.44Q31.86 18.43 31.99 18.33Q32.13 18.23 32.13 18.01L32.13 18.01L32.13 15.98Q32.13 14.69 31.90 14.21L31.90 14.21Q31.58 13.50 30.78 13.50L30.78 13.50Q29.80 13.50 29.27 14Q28.75 14.50 28.75 15.42L28.75 15.42L28.75 18.01Q28.75 18.41 29.19 18.43Q29.63 18.46 29.63 18.79L29.63 18.79Q29.63 19.16 29.22 19.25L29.22 19.25Q28.91 19.32 28.36 19.32ZM43.41 17.92L43.41 17.92Q45.14 14.26 45.14 14.05Q45.14 13.85 44.99 13.77Q44.84 13.69 44.66 13.67L44.66 13.67Q44.18 13.62 44.18 13.39L44.18 13.39Q44.18 12.77 45.65 12.77L45.65 12.77L45.92 12.77Q46.58 12.77 46.86 12.98Q47.15 13.19 47.15 13.38Q47.15 13.56 46.94 13.60L46.94 13.60Q46.52 13.68 46.31 13.84Q46.10 14 45.90 14.43Q45.71 14.86 45.24 15.90Q44.78 16.94 44.46 17.60L44.46 17.60L42.99 20.62Q42.76 21.11 42.39 21.43Q42.03 21.76 41.53 21.76Q41.03 21.76 40.66 21.51Q40.28 21.26 40.28 20.87Q40.28 20.47 40.52 20.24Q40.76 20.02 41.11 20.02Q41.47 20.02 41.75 20.19Q42.03 20.37 42.05 20.63L42.05 20.63Q42.59 19.76 42.78 19.28L42.78 19.28Q42.49 18.48 41.47 16.50Q40.45 14.51 40.34 14.28Q40.23 14.05 40.15 13.97Q40.07 13.88 39.95 13.82Q39.83 13.75 39.74 13.73Q39.66 13.70 39.48 13.65Q39.29 13.60 39.18 13.57Q39.07 13.54 39.07 13.36L39.07 13.36Q39.07 12.77 40.68 12.77L40.68 12.77Q41.67 12.77 41.95 12.87L41.95 12.87Q42.49 13.06 42.49 13.38L42.49 13.38Q42.49 13.59 42.09 13.67Q41.68 13.75 41.68 13.97L41.68 13.97Q41.68 13.99 41.92 14.62L41.92 14.62Q42.70 16.65 43.41 17.92Z"></path></g><!----><!----></svg>